<svg id="Capa_1" data-name="Capa 1" xmlns="http://www.w3.org/2000/svg" viewBox="0 0 870.98 538.68"><path d="M854.23,494c-2.77-9.14-4.83-18.05-8.16-26.44-6.5-16.35-18.92-26.58-36.44-27.59-16.43-.94-31.14,4.55-40.9,19.26-27.43,41.33-55.62,82.12-88.16,119.69a7,7,0,0,1-.81,1c-9.85,7.72-13.83,18.76-18,30.05-9.41,25.79-20.25,51-34.53,74.55-7.82,12.9-17.11,24.6-29.36,33.72-14.55,10.84-30.69,13-47.86,8.58-16-4.15-24.2-17.13-21.51-33.5,3.67-22.35,15.15-40,33.7-52.62C579,629.28,596.6,619,613.68,608.07a13.78,13.78,0,0,0,5.06-6.16c4.68-12,9-24.1,13.41-36.17a8.88,8.88,0,0,0,.65-4.73l-2.88,3.26c-6.47,7.28-13.53,13.8-22.49,18-8.33,3.88-17.11,5.23-25.76,2.3-19-6.46-35.24-16.92-38.48-38.49-1.54-10.26-.06-21.25,1.55-31.67,5.24-34,17.58-66.08,28.43-98.53,1.82-5.42,3.31-11,4.87-16.46a37,37,0,0,0,.62-4.84,41.12,41.12,0,0,0-3.92,2.89c-39.55,38.95-68.18,84.37-81.38,138.72-2.66,11-4,22.28-5.52,33.49-.54,4-2,6.18-5.7,7.76-5.78,2.44-11.62,3.32-17.62,1.88-8.95-2.14-14.76-9.21-14.4-19.7a395,395,0,0,1,3.69-44.68c5-33.56,16.23-65.62,25-98.28,1.74-6.47,3-13.06,4.37-19.64a29,29,0,0,0,.06-5.6l-1.29-.68a50,50,0,0,0-4.86,3.37c-18.8,16.26-33.09,36.1-45.13,57.63A478.37,478.37,0,0,0,383.54,577c-.84,3.57-3.17,4.93-6.24,5.13-11.59.74-22.45-1.93-32.78-7.21-4.3-2.2-4.43-5.67-3.73-9.59,1.26-7,2.58-14,3.34-21.29-1.81,2.87-3.41,5.89-5.45,8.57-6,7.89-12,15.87-18.41,23.41-18.85,22-57.64,15.64-71.2-9.81-5.45-10.23-8-21.17-8.6-32.61-.91-16.76,1.08-33.27,4.72-49.62a5,5,0,0,0-.26-3.23c-.82,1.3-1.62,2.6-2.44,3.9-18.26,28.86-36.15,58-54.9,86.48-12.83,19.52-24,22.7-46.46,15.73-14.69-4.57-25.37-13.15-26.64-29.35a131.09,131.09,0,0,1,.85-29.3c4.86-32.54,14.06-63.84,29.28-93.16,8.66-16.67,19.32-31.91,34.31-43.62,17.73-13.85,37.69-18.59,59.69-13.7,11.62,2.58,20.38,9.58,27.5,20,1.6-5.41,3.07-10.21,4.46-15,15.27-52.9,32.23-105.24,53-156.27,1.95-4.78,4.32-9.39,6.42-14.11,1.31-2.94,3.39-4.78,6.63-5.07,11.59-1,22.63.58,32.6,7,2.53,1.64,3.39,3.56,2.18,6.73-9.69,25.32-19.77,50.51-28.66,76.12-19.17,55.24-36.31,111.13-48.58,168.34C289.58,487,286.4,509,283.9,530.89c-1.1,9.66,1.15,19.72,1.94,29.59a10.26,10.26,0,0,0,.85,2.8c3.65,9.65,9.61,11.75,17.22,4.92a93.19,93.19,0,0,0,16.15-18.64c23.86-37.15,42.58-76.71,55-119.21,5.44-18.65,11.84-37,17.88-55.48,1.72-5.27,4.42-7.62,10.51-6.82a142.76,142.76,0,0,1,26.09,5.58c7.19,2.36,7.19,5.49,4.67,11.43-10.61,25-18.2,51.05-25.39,77.21a24,24,0,0,0-1.12,6.31c1.15-2,2.33-4.07,3.46-6.13,13.23-24.08,27.41-47.58,44.28-69.29a132.7,132.7,0,0,1,18.9-19.6c10.9-9.21,23.25-8.56,35.42-2.49,8.9,4.44,12,11.15,9.64,21.83-3.89,17.44-8.31,34.76-12.73,52.08-2.72,10.68-5.86,21.25-8.08,32.25.87-1.56,1.76-3.11,2.6-4.68,14.56-27,30.59-53.15,49.25-77.55,4.82-6.3,10.62-11.92,16.39-17.41a33,33,0,0,1,24.61-9.06c8.62.32,17.23,1.38,25.8,2.51,2.68.35,5.32,1.74,7.75,3.08,5.15,2.84,6.4,5.53,4.6,11.11q-10,30.9-20.31,61.68c-8.55,25.47-16.44,51.12-20.92,77.68-1.86,11.07-3.22,22.19-1.3,33.43.09.55.12,1.11.25,1.66,2.39,10,8.31,12.46,16.42,6.16a56.21,56.21,0,0,0,11.75-11.91c7.75-11.12,15.73-22.25,22-34.21,11.5-21.93,22.81-44.05,32.32-66.88,6.35-15.23,9.65-31.77,13.93-47.83a235.07,235.07,0,0,0,4.87-24.26c.55-3.52,2.31-5,5.33-5.36,12.39-1.38,24.23.4,35.16,6.73,2.87,1.66,4,4,2.87,7.43-5.31,16.78-10.44,33.61-15.7,50.41q-17.16,54.78-34.39,109.56a2.05,2.05,0,0,0,.12,1.74c5.12-6.64,10.52-13.1,15.32-20,17.51-25,33.67-51.09,52.53-75,19.67-25,41.56-35.35,69.93-27.3,23.68,6.72,36.39,23.73,42.37,46.67,1.33,5.12,2.44,10.3,3.69,15.64,6.9,0,13.61-.21,20.3,0,32.51,1.2,67.28,26.87,75.33,57.31,8.25,31.19,15.9,62.61,22,94.27,9.1,47.59-21.4,91.17-69,100.8-46.26,9.36-89-16.16-101.77-61.76-6-21.36-10.15-43.24-15.33-64.84-3.49-14.58-7.32-29.14-5.92-44.3,3.27-35.37,21.63-60.07,53.71-74.82C847.92,496.69,850.75,495.52,854.23,494ZM161,573.46c2.2-1.83,4.12-3.05,5.54-4.69,4.32-5,8.81-9.82,12.57-15.19,29.89-42.73,55-88.33,80.57-133.69.73-1.31,1.15-3.52.54-4.73-3.11-6.21-5.93-12.74-10.13-18.18-5.41-7-13.26-8.33-21.6-5.1-7.94,3.07-14,8.66-19.42,15-15.44,18-26.06,38.64-33.89,60.89-8.29,23.56-14.8,47.52-16.82,72.51C157.5,551.18,157.45,562.08,161,573.46Zm737.79,5.13c-1.51-6.5-3.29-14.69-5.34-22.81-1.82-7.2-6.21-11.94-13.58-14.08-1.69-.48-3.39-2.71-4.08-4.52a123.65,123.65,0,0,1-3.37-12.1c-.89-3.39-2.85-5.53-6.57-5.08-2.82.33-4.94,4.11-4.35,7.63.46,2.76.77,5.67,1.92,8.15,2.39,5.15,1.09,9-2.81,12.76a15.44,15.44,0,0,0-4.83,13.79c1.4,8.11,3.46,16.12,5.54,24.1,1.63,6.23,5.51,10.82,11.93,12.35a6.91,6.91,0,0,1,5.64,5.43c1,3.78,1.92,7.59,2.85,11.39,1.08,4.42,3.35,6.16,7,5.35,2.75-.61,4.69-4.19,4-7.78-.77-3.83-1.73-7.63-2.7-11.42-.75-3-.37-5.3,2.33-7.37C896.89,590.91,898.58,585.92,898.82,578.59ZM606.57,634.25l-.82-.71c-7.2,5-14.57,9.75-21.57,15-13.73,10.3-26.63,21.59-35.29,36.67-3.13,5.45-4.92,11.78-6.58,17.91-1,3.67-.15,7.75,3.42,10.14,3.73,2.49,7.75,1.46,11-.85a66.5,66.5,0,0,0,10.44-9c13.51-14.54,22.39-32,30.85-49.73C601.11,647.29,603.75,640.73,606.57,634.25Z" transform="translate(-114.05 -206.93)"/><path d="M727.18,296a32.73,32.73,0,0,1,33,32.61,33,33,0,1,1-66,0A32.71,32.71,0,0,1,727.18,296Z" transform="translate(-114.05 -206.93)"/><path d="M867.26,562.94c0-6.2,2.23-9.23,6.18-10.16a7.58,7.58,0,0,1,8.91,5.25c2,7.39,3.7,14.91,5.1,22.45.66,3.56-2.11,6.61-5.85,7.53s-8.26-.7-9.34-4.45C870.13,576.21,868.62,568.68,867.26,562.94Z" transform="translate(-114.05 -206.93)"/></svg>